<svg id="Layer_1" data-name="Layer 1" xmlns="http://www.w3.org/2000/svg" viewBox="0 0 1458.23 852.39"><defs><style>.cls-1{fill:#fff;}.cls-2{fill:#8f9292;}</style></defs><title>icon</title><polygon class="cls-1" points="0 646.85 244.26 0 449.44 0 212.5 646.85 0 646.85"/><polygon class="cls-1" points="342.64 646.85 586.9 0 792.08 0 555.15 646.85 342.64 646.85"/><polygon class="cls-1" points="688.67 646.85 932.93 0 1138.11 0 901.18 646.85 688.67 646.85"/><path class="cls-2" d="M455.2,600.51,376,453.81l93.42-255,74.76,166Q499.71,482.64,455.2,600.51Z" transform="translate(-20.89 -196.42)"/><path class="cls-2" d="M801.23,603.91,718,455.75l95-259.33q38.65,85.86,77.29,171.73Q845.75,486,801.23,603.91Z" transform="translate(-20.89 -196.42)"/><path class="cls-1" d="M1117.61,843.27l-95.26-190.52h171L1091.19,381.54,1159,196.42h75.85l244.26,646.85Z" transform="translate(-20.89 -196.42)"/><path class="cls-1" d="M23.22,1024a1.66,1.66,0,0,1,.08-.62L48.06,919.15c.47-1.94,2.41-1.94,4.35-1.94s3.88,0,4.82,1.4l36.33,64.21,36.34-64.21c.85-1.4,2.79-1.4,4.73-1.4s3.88.08,4.35,1.94l24.77,104.27a1.88,1.88,0,0,1,.07.62c0,3.11-6.75,3.11-13.58,3.11-7.22,0-14.37,0-15.06-2.8l-10.87-50.46L97.6,1025.21c-.78,1.47-2.41,1.47-4,1.47s-3.34,0-4.19-1.47L62.82,973.89,52,1024.35c-.78,2.8-7.92,2.8-15.14,2.8C30,1027.15,23.22,1027.15,23.22,1024Z" transform="translate(-20.89 -196.42)"/><path class="cls-1" d="M177.66,1024V921.56c0-3.11,6.6-3.18,13.35-3.18s13.28.07,13.28,3.18V1024c0,3.18-6.6,3.26-13.28,3.26S177.66,1027.22,177.66,1024Z" transform="translate(-20.89 -196.42)"/><path class="cls-1" d="M220.6,972.88c0-31.6,23.68-55.28,56.21-55.28,14.52,0,25.54,2.87,35.56,10.09a3,3,0,0,1,1,2.64c0,3.11-1.71,7.84-3.11,11.18-2.33,5.44-5.51,10.56-8.15,10.56a2,2,0,0,1-1.09-.39,42.53,42.53,0,0,0-23.91-7.3c-14.67,0-27.72,11.57-27.72,28.5s13,28.41,27.72,28.41A43.85,43.85,0,0,0,301,994.07a2.24,2.24,0,0,1,1.17-.31c2.33,0,5.43,4,8.07,9.94,1.48,3.42,3.11,8.31,3.11,11.49,0,1.32-.23,2.41-1,2.87-10,7.07-21,10.17-35.56,10.17C244.28,1028.23,220.6,1004.48,220.6,972.88Z" transform="translate(-20.89 -196.42)"/><path class="cls-1" d="M327.68,1024.12V921.56c0-3.11,6.59-3.18,13.35-3.18s13.28.07,13.28,3.18V958h46.58V921.56c0-3.11,6.68-3.18,13.28-3.18s13.35.07,13.35,3.18V1024c0,3.18-6.68,3.26-13.35,3.26s-13.28-.08-13.28-3.18V983.75H354.31V1024c0,3.18-6.6,3.26-13.28,3.26S327.68,1027.22,327.68,1024.12Z" transform="translate(-20.89 -196.42)"/><path class="cls-1" d="M443.22,972.88c0-30.51,25-55.28,55.82-55.28s55.82,24.77,55.82,55.28-25,55.35-55.82,55.35S443.22,1003.47,443.22,972.88Zm82.76,0c0-15.84-11.57-28.11-26.94-28.11S472,957,472,972.88s11.65,28.18,27,28.18S526,988.64,526,972.88Z" transform="translate(-20.89 -196.42)"/><path class="cls-1" d="M571.88,1024.12V921.4a2.17,2.17,0,0,1,2.09-2.25h44.65c17.93,0,33.77,13.9,33.77,35.4,0,13.44-6.37,24-15.68,29.59l20.8,39.05a3,3,0,0,1,.39,1.32c0,2.79-6.21,2.79-12.34,2.79-7.07,0-14.13,0-15.3-2.33l-17.54-35H598.51v34.16c0,3.1-6.68,3.18-13.36,3.18S571.88,1027.22,571.88,1024.12Zm52.4-69.49a9.64,9.64,0,0,0-9.62-9.7H598.51v19.41h16.15A9.64,9.64,0,0,0,624.28,954.63Z" transform="translate(-20.89 -196.42)"/><path class="cls-1" d="M663.5,972.88c0-30.51,25-55.28,55.83-55.28s55.82,24.77,55.82,55.28-25,55.35-55.82,55.35S663.5,1003.47,663.5,972.88Zm82.77,0c0-15.84-11.57-28.11-26.94-28.11s-27,12.27-27,28.11,11.64,28.18,27,28.18S746.27,988.64,746.27,972.88Z" transform="translate(-20.89 -196.42)"/><path class="cls-1" d="M808.55,1024.35a2.61,2.61,0,0,1,.31-1.16L858.7,918.92c.78-1.55,2.72-1.55,4.66-1.55s3.81,0,4.58,1.55l49.93,104.35a2.11,2.11,0,0,1,.31,1.08c0,2.8-6.76,3-13.44,3-7.53,0-15-.08-16-2.56l-5.51-13.59H843.57L838,1024.74c-1.09,2.48-8.55,2.56-16.08,2.56C815.23,1027.3,808.55,1027.3,808.55,1024.35Zm44.56-34.78h20.81l-10.4-24.22Z" transform="translate(-20.89 -196.42)"/><path class="cls-1" d="M927.89,1024.12V921.4a2.13,2.13,0,0,1,2.1-2.25h70.73c3.41,0,3.49,6.45,3.49,12.81,0,6.52-.08,13-3.49,13h-46.2v21.66h38.2c3.26,0,3.34,5.67,3.34,11.26s-.08,11.33-3.34,11.33h-38.2V1024c0,3.18-6.67,3.26-13.35,3.26S927.89,1027.22,927.89,1024.12Z" transform="translate(-20.89 -196.42)"/><path class="cls-1" d="M1016.72,1024.12V921.4a2.17,2.17,0,0,1,2.1-2.25h44.64c17.94,0,33.78,13.9,33.78,35.4,0,13.44-6.37,24-15.69,29.59l20.81,39.05a3.17,3.17,0,0,1,.39,1.32c0,2.79-6.21,2.79-12.35,2.79-7.06,0-14.13,0-15.29-2.33l-17.55-35h-14.21v34.16c0,3.1-6.67,3.18-13.35,3.18S1016.72,1027.22,1016.72,1024.12Zm52.41-69.49a9.64,9.64,0,0,0-9.63-9.7h-16.15v19.41h16.15A9.65,9.65,0,0,0,1069.13,954.63Z" transform="translate(-20.89 -196.42)"/><path class="cls-1" d="M1116.81,1024V921.56c0-3.11,6.6-3.18,13.35-3.18s13.28.07,13.28,3.18V1024c0,3.18-6.6,3.26-13.28,3.26S1116.81,1027.22,1116.81,1024Z" transform="translate(-20.89 -196.42)"/><path class="cls-1" d="M1234.28,1046.64l-14-19.34a13.68,13.68,0,0,1-5.12.93c-30.82,0-55.83-24.76-55.83-55.35s25-55.28,55.83-55.28,55.82,24.77,55.82,55.28a55.17,55.17,0,0,1-23.45,45l20.11,26.63a2.66,2.66,0,0,1,.62,1.55c0,2.8-7.61,2.8-15.06,2.8C1244.45,1048.81,1235.68,1048.81,1234.28,1046.64Zm7.77-73.76c0-15.84-11.57-28.11-26.94-28.11s-27,12.27-27,28.11,11.64,28.18,27,28.18S1242.05,988.64,1242.05,972.88Z" transform="translate(-20.89 -196.42)"/><path class="cls-1" d="M1287.4,993.22V921.56c0-3.18,6.68-3.18,13.28-3.18s13.35,0,13.35,3.26v63.74c0,9.7,6.91,15.6,17.16,15.6,9.24,0,17.16-5.2,17.16-15.6V921.56c0-3.18,6.75-3.18,13.35-3.18s13.36,0,13.36,3.26v71.58c0,19-16.46,34.94-43.87,34.94C1302.85,1028.16,1287.4,1011.54,1287.4,993.22Z" transform="translate(-20.89 -196.42)"/><path class="cls-1" d="M1397.66,1024.35V921.4a2.1,2.1,0,0,1,2.1-2.17l70.81-.08c3.33,0,3.41,6.37,3.41,12.81s-.08,13-3.41,13h-46.28v15h38.28c3.18,0,3.26,5.67,3.26,11.26s-.08,11.33-3.26,11.33h-38.28v18.33l46.2-.08c3.41,0,3.49,6.44,3.49,13,0,6.36-.08,12.88-3.41,12.88h-70.81A2.22,2.22,0,0,1,1397.66,1024.35Z" transform="translate(-20.89 -196.42)"/></svg>